mtllib cube.mtl

v  0.000000 0.000000 0.000000
v  0.000000 0.000000 0.000000
v  0.000000 0.000000 0.000000
v  0.000000 274.289848 0.000000
v  0.000000 274.289848 0.000000
v  0.000000 274.289848 0.000000
v  0.000000 274.289848 -287.685420
v  0.000000 274.289848 -287.685420
v  0.000000 274.289848 -287.685420
v  0.000000 0.000000 -287.685420
v  0.000000 0.000000 -287.685420
v  0.000000 0.000000 -287.685420
v  -121.690000 0.000000 0.000000
v  -121.690000 0.000000 0.000000
v  -121.690000 0.000000 0.000000
v  -121.690000 0.000000 -287.685420
v  -121.690000 0.000000 -287.685420
v  -121.690000 0.000000 -287.685420
v  -121.690000 274.289848 -287.685420
v  -121.690000 274.289848 -287.685420
v  -121.690000 274.289848 -287.685420
v  -121.690000 274.289848 0.000000
v  -121.690000 274.289848 0.000000
v  -121.690000 274.289848 0.000000

vt  1.000000 0.000000 0.000000
vt  1.000000 0.000000 0.000000
vt  1.000000 0.000000 0.000000
vt  1.000000 1.000000 0.000000
vt  1.000000 1.000000 0.000000
vt  1.000000 1.000000 0.000000
vt  1.000000 1.000000 0.000000
vt  1.000000 1.000000 0.000000
vt  1.000000 1.000000 0.000000
vt  1.000000 0.000000 0.000000
vt  1.000000 0.000000 0.000000
vt  1.000000 0.000000 0.000000
vt  0.000000 0.000000 0.000000
vt  0.000000 0.000000 0.000000
vt  0.000000 0.000000 0.000000
vt  0.000000 0.000000 0.000000
vt  0.000000 0.000000 0.000000
vt  0.000000 0.000000 0.000000
vt  0.000000 1.000000 0.000000
vt  0.000000 1.000000 0.000000
vt  0.000000 1.000000 0.000000
vt  0.000000 1.000000 0.000000
vt  0.000000 1.000000 0.000000
vt  0.000000 1.000000 0.000000

vn  1.000000 0.000000 0.000000
vn  0.000000 -1.000000 0.000000
vn  0.000000 0.000000 1.000000
vn  1.000000 0.000000 0.000000
vn  0.000000 1.000000 0.000000
vn  0.000000 0.000000 1.000000
vn  1.000000 0.000000 0.000000
vn  0.000000 0.000000 -1.000000
vn  0.000000 1.000000 0.000000
vn  1.000000 0.000000 0.000000
vn  0.000000 -1.000000 0.000000
vn  0.000000 0.000000 -1.000000
vn  -1.000000 0.000000 0.000000
vn  0.000000 -1.000000 0.000000
vn  0.000000 0.000000 1.000000
vn  -1.000000 0.000000 0.000000
vn  0.000000 -1.000000 0.000000
vn  0.000000 0.000000 -1.000000
vn  -1.000000 0.000000 0.000000
vn  0.000000 0.000000 -1.000000
vn  0.000000 1.000000 0.000000
vn  -1.000000 0.000000 0.000000
vn  0.000000 1.000000 0.000000
vn  0.000000 0.000000 1.000000


g 0
g 1
usemtl DEFAULT_MTL
f 10/10/10  4/4/4  1/1/1
f 15/15/15  3/3/3  6/6/6
f 17/17/17  11/11/11  2/2/2
f 17/17/17  2/2/2  14/14/14
f 10/10/10  7/7/7  4/4/4
f 23/23/23  5/5/5  9/9/9
f 24/24/24  15/15/15  6/6/6
f 20/20/20  8/8/8  12/12/12
f 23/23/23  9/9/9  21/21/21
f 20/20/20  12/12/12  18/18/18
f 19/19/19  16/16/16  13/13/13
f 22/22/22  19/19/19  13/13/13
